# xmcd CD database file
#
# Track frame offsets:
#	150
#	25977
#	41887
#	60252
#	76056
#	92555
#	114182
#	129011
#	145384
#	168439
#
# Disc length: 2558 seconds
#
# Revision: 0
# Processed by: cddbd v1.5.2PL0 Copyright (c) Steve Scherf et al.
# Submitted via: CDex 1.51
#
DISCID=7209fc0a
DTITLE=Lucky Thompson - Lucky In Paris
DYEAR=1959
DGENRE=Jazz
TTITLE0=How About You
TTITLE1=Midnight Sun
TTITLE2=Pennies From Heaven
TTITLE3=Solitude
TTITLE4=Have You Met Miss Jones
TTITLE5=We'll Be Together Again
TTITLE6=Soul Food
TTITLE7=Tea For Two
TTITLE8=O.W.
TTITLE9=Brother Bob
EXTD=YEAR: 1959
EXTT0=
EXTT1=
EXTT2=
EXTT3=
EXTT4=
EXTT5=
EXTT6=
EXTT7=
EXTT8=
EXTT9=
PLAYORDER=
